<svg width="65" height="57" viewBox="0 0 65 57" fill="none" xmlns="http://www.w3.org/2000/svg">
<path d="M57.4251 7.09651H50.3246V0H43.2281H36.1316H29.0311H21.9346H14.8381V7.09651H7.74157V14.197H0.641113V21.2935V28.39V35.4865V42.587H7.74157V49.6835H14.8381V56.78H21.9346H29.0311H36.1316H43.2281H50.3246V49.6835H57.4251V42.587H64.5216V35.4865V28.39V21.2935V14.197H57.4251V7.09651Z" fill="white"/>
<rect x="8" y="28" width="7" height="15" fill="#F1F1F1"/>
<rect x="51" y="14" width="7" height="15" fill="#F1F1F1"/>
<rect x="15" y="43" width="7" height="7" fill="#F1F1F1"/>
<rect x="44" y="7" width="7" height="7" fill="#F1F1F1"/>
<path d="M13 31.5V26.5H15.5V24H18V21.5H23V19H25.5V16.5H18V19H13V16.5H15.5V14H28V16.5H30.5V21.5H28V24H25.5V26.5H20.5V29H30.5V31.5H13ZM35.5 31.5V29H33V26.5H38V29H45.5V21.5H33V14H48V16.5H38V19H48V21.5H50.5V29H48V31.5H35.5Z" fill="#FF267E"/>
<path d="M20 42.875V35H26.75V36.125H27.875V39.5H25.625V40.625H26.75V41.75H27.875V42.875H24.5V41.75H23.375V40.625H22.25V42.875H20ZM22.25 39.5H24.5V38.375H25.625V36.125H22.25V39.5ZM30.125 42.875V41.75H29V36.125H30.125V35H35.75V36.125H36.875V41.75H35.75V42.875H30.125ZM31.25 41.75H34.625V36.125H31.25V41.75ZM38 42.875V35H40.25V36.125H41.375V37.25H42.5V38.375H43.625V35H45.875V42.875H43.625V40.625H42.5V39.5H41.375V38.375H40.25V42.875H38Z" fill="#FF267E"/>
<path d="M20 51.875V44H26.75V45.125H27.875V48.5H25.625V49.625H26.75V50.75H27.875V51.875H24.5V50.75H23.375V49.625H22.25V51.875H20ZM22.25 48.5H24.5V47.375H25.625V45.125H22.25V48.5ZM29 51.875V44H36.875V45.125H31.25V47.375H35.75V48.5H31.25V51.875H29ZM38 51.875V44H44.75V45.125H45.875V47.375H44.75V48.5H45.875V50.75H44.75V51.875H38ZM40.25 47.375H43.625V45.125H40.25V47.375ZM40.25 50.75H43.625V48.5H40.25V50.75Z" fill="#FF267E"/>
</svg>
