<svg width="65" height="57" viewBox="0 0 65 57" fill="none" xmlns="http://www.w3.org/2000/svg">
<path d="M57.6643 7.09651H50.5639V0H43.4673H36.3708H29.2704H22.1739H15.0773V7.09651H7.98083V14.197H0.880371V21.2935V28.39V35.4865V42.587H7.98083V49.6835H15.0773V56.78H22.1739H29.2704H36.3708H43.4673H50.5639V49.6835H57.6643V42.587H64.7608V35.4865V28.39V21.2935V14.197H57.6643V7.09651Z" fill="white"/>
<rect x="8.23926" y="28" width="7" height="15" fill="#F1F1F1"/>
<rect x="51.2393" y="14" width="7" height="15" fill="#F1F1F1"/>
<rect x="15.2393" y="43" width="7" height="7" fill="#F1F1F1"/>
<rect x="44.2393" y="7" width="7" height="7" fill="#F1F1F1"/>
<path d="M15.7393 31.5V29H20.7393V19H18.2393V16.5H20.7393V14H25.7393V29H30.7393V31.5H15.7393ZM35.7393 31.5V29H33.2393V26.5H38.2393V29H45.7393V21.5H33.2393V14H48.2393V16.5H38.2393V19H48.2393V21.5H50.7393V29H48.2393V31.5H35.7393Z" fill="#FF267E"/>
<path d="M20.2393 42.875V35H26.9893V36.125H28.1143V39.5H25.8643V40.625H26.9893V41.75H28.1143V42.875H24.7393V41.75H23.6143V40.625H22.4893V42.875H20.2393ZM22.4893 39.5H24.7393V38.375H25.8643V36.125H22.4893V39.5ZM30.3643 42.875V41.75H29.2393V36.125H30.3643V35H35.9893V36.125H37.1143V41.75H35.9893V42.875H30.3643ZM31.4893 41.75H34.8643V36.125H31.4893V41.75ZM38.2393 42.875V35H40.4893V36.125H41.6143V37.25H42.7393V38.375H43.8643V35H46.1143V42.875H43.8643V40.625H42.7393V39.5H41.6143V38.375H40.4893V42.875H38.2393Z" fill="#FF267E"/>
<path d="M20.2393 51.875V44H26.9893V45.125H28.1143V48.5H25.8643V49.625H26.9893V50.75H28.1143V51.875H24.7393V50.75H23.6143V49.625H22.4893V51.875H20.2393ZM22.4893 48.5H24.7393V47.375H25.8643V45.125H22.4893V48.5ZM29.2393 51.875V44H37.1143V45.125H31.4893V47.375H35.9893V48.5H31.4893V51.875H29.2393ZM38.2393 51.875V44H44.9893V45.125H46.1143V47.375H44.9893V48.5H46.1143V50.75H44.9893V51.875H38.2393ZM40.4893 47.375H43.8643V45.125H40.4893V47.375ZM40.4893 50.75H43.8643V48.5H40.4893V50.75Z" fill="#FF267E"/>
</svg>
