<svg width="64" height="57" viewBox="0 0 64 57" fill="none" xmlns="http://www.w3.org/2000/svg">
<path d="M56.7839 7.09651H49.6835V0H42.587H35.4905H28.39H21.2935H14.197V7.09651H7.10046V14.197H0V21.2935V28.39V35.4865V42.587H7.10046V49.6835H14.197V56.78H21.2935H28.39H35.4905H42.587H49.6835V49.6835H56.7839V42.587H63.8805V35.4865V28.39V21.2935V14.197H56.7839V7.09651Z" fill="white"/>
<rect x="7.23926" y="28" width="7" height="15" fill="#F1F1F1"/>
<rect x="50.2393" y="14" width="7" height="15" fill="#F1F1F1"/>
<rect x="14.2393" y="43" width="7" height="7" fill="#F1F1F1"/>
<rect x="43.2393" y="7" width="7" height="7" fill="#F1F1F1"/>
<path d="M14.5 31.5V29H19.5V19H17V16.5H19.5V14H24.5V29H29.5V31.5H14.5ZM37 31.5V29H34.5V26.5H32V19H34.5V16.5H37V14H44.5V16.5H47V19H49.5V26.5H47V29H44.5V31.5H37ZM39.5 29H44.5V19H42V16.5H37V26.5H39.5V29Z" fill="#FF267E"/>
<path d="M21.2393 47.625V38H30.8643V39.375H23.9893V42.125H29.4893V43.5H23.9893V47.625H21.2393ZM33.6143 47.625V46.25H32.2393V44.875H34.9893V46.25H39.1143V43.5H33.6143V42.125H32.2393V39.375H33.6143V38H40.4893V39.375H41.8643V40.75H39.1143V39.375H34.9893V42.125H40.4893V43.5H41.8643V46.25H40.4893V47.625H33.6143Z" fill="#FF267E"/>
</svg>
