<svg width="64" height="57" viewBox="0 0 64 57" fill="none" xmlns="http://www.w3.org/2000/svg">
<path d="M56.7839 7.09651H49.6835V0H42.587H35.4905H28.39H21.2935H14.197V7.09651H7.10046V14.197H0V21.2935V28.39V35.4865V42.587H7.10046V49.6835H14.197V56.78H21.2935H28.39H35.4905H42.587H49.6835V49.6835H56.7839V42.587H63.8805V35.4865V28.39V21.2935V14.197H56.7839V7.09651Z" fill="white"/>
<rect x="7" y="28" width="7" height="15" fill="#F1F1F1"/>
<rect x="50" y="14" width="7" height="15" fill="#F1F1F1"/>
<rect x="14" y="43" width="7" height="7" fill="#F1F1F1"/>
<rect x="43" y="7" width="7" height="7" fill="#F1F1F1"/>
<path d="M24.5 26.5V24H22V21.5H27V24H34.5V19H27V16.5H29.5V14H32V11.5H24.5V9H39.5V11.5H37V14H34.5V16.5H37V19H39.5V24H37V26.5H24.5Z" fill="#FF267E"/>
<path d="M36.9497 49.5926V41.7176H43.6997V42.8426H44.8247V45.0926H43.6997V46.2176H44.8247V48.4676H43.6997V49.5926H36.9497ZM39.1997 45.0926H42.5747V42.8426H39.1997V45.0926ZM39.1997 48.4676H42.5747V46.2176H39.1997V48.4676Z" fill="#FF267E"/>
<path d="M27.9497 49.5926V41.7176H35.8247V42.8426H30.1997V45.0926H34.6997V46.2176H30.1997V49.5926H27.9497Z" fill="#FF267E"/>
<path d="M18.9497 49.5926V41.7176H25.6997V42.8426H26.8247V46.2176H24.5747V47.3426H25.6997V48.4676H26.8247V49.5926H23.4497V48.4676H22.3247V47.3426H21.1997V49.5926H18.9497ZM21.1997 46.2176H23.4497V45.0926H24.5747V42.8426H21.1997V46.2176Z" fill="#FF267E"/>
<path d="M36.9497 38.5926V30.7176H43.6997V31.8426H44.8247V35.2176H42.5747V36.3426H43.6997V37.4676H44.8247V38.5926H41.4497V37.4676H40.3247V36.3426H39.1997V38.5926H36.9497ZM39.1997 35.2176H41.4497V34.0926H42.5747V31.8426H39.1997V35.2176Z" fill="#FF267E"/>
<path d="M29.0747 38.5926V37.4676H27.9497V30.7176H30.1997V37.4676H33.5747V30.7176H35.8247V37.4676H34.6997V38.5926H29.0747Z" fill="#FF267E"/>
<path d="M18.9497 38.5926V30.7176H26.8247V31.8426H21.1997V34.0926H25.6997V35.2176H21.1997V37.4676H26.8247V38.5926H18.9497Z" fill="#FF267E"/>
</svg>
