<svg width="65" height="57" viewBox="0 0 65 57" fill="none" xmlns="http://www.w3.org/2000/svg">
<path d="M57.3054 7.09651H50.205V0H43.1085H36.0119H28.9115H21.815H14.7185V7.09651H7.62195V14.197H0.521484V21.2935V28.39V35.4865V42.587H7.62195V49.6835H14.7185V56.78H21.815H28.9115H36.0119H43.1085H50.205V49.6835H57.3054V42.587H64.4019V35.4865V28.39V21.2935V14.197H57.3054V7.09651Z" fill="white"/>
<rect x="7" y="28" width="7" height="15" fill="#F1F1F1"/>
<rect x="50" y="14" width="7" height="15" fill="#F1F1F1"/>
<rect x="14" y="43" width="7" height="7" fill="#F1F1F1"/>
<rect x="43" y="7" width="7" height="7" fill="#F1F1F1"/>
<path d="M22.5215 32.5V27.5H25.0215V25H27.5215V22.5H32.5215V20H35.0215V17.5H27.5215V20H22.5215V17.5H25.0215V15H37.5215V17.5H40.0215V22.5H37.5215V25H35.0215V27.5H30.0215V30H40.0215V32.5H22.5215Z" fill="#FF267E"/>
<path d="M34.0962 44.5926V43.4676H32.9712V42.3426H35.2212V43.4676H38.5962V41.2176H34.0962V40.0926H32.9712V37.8426H34.0962V36.7176H39.7212V37.8426H40.8462V38.9676H38.5962V37.8426H35.2212V40.0926H39.7212V41.2176H40.8462V43.4676H39.7212V44.5926H34.0962Z" fill="#FF267E"/>
<path d="M23.9712 44.5926V36.7176H31.8462V37.8426H26.2212V40.0926H30.7212V41.2176H26.2212V44.5926H23.9712Z" fill="#FF267E"/>
</svg>
