<svg width="65" height="57" viewBox="0 0 65 57" fill="none" xmlns="http://www.w3.org/2000/svg">
<path d="M57.6643 7.09651H50.5639V0H43.4673H36.3708H29.2704H22.1739H15.0773V7.09651H7.98083V14.197H0.880371V21.2935V28.39V35.4865V42.587H7.98083V49.6835H15.0773V56.78H22.1739H29.2704H36.3708H43.4673H50.5639V49.6835H57.6643V42.587H64.7608V35.4865V28.39V21.2935V14.197H57.6643V7.09651Z" fill="white"/>
<rect x="8" y="28" width="7" height="15" fill="#F1F1F1"/>
<rect x="51" y="14" width="7" height="15" fill="#F1F1F1"/>
<rect x="15" y="43" width="7" height="7" fill="#F1F1F1"/>
<rect x="44" y="7" width="7" height="7" fill="#F1F1F1"/>
<path d="M25.3804 32.5V30H30.3804V20H27.8804V17.5H30.3804V15H35.3804V30H40.3804V32.5H25.3804Z" fill="#FF267E"/>
<path d="M34.4551 44.5926V43.4676H33.3301V42.3426H35.5801V43.4676H38.9551V41.2176H34.4551V40.0926H33.3301V37.8426H34.4551V36.7176H40.0801V37.8426H41.2051V38.9676H38.9551V37.8426H35.5801V40.0926H40.0801V41.2176H41.2051V43.4676H40.0801V44.5926H34.4551Z" fill="#FF267E"/>
<path d="M24.3301 44.5926V36.7176H32.2051V37.8426H26.5801V40.0926H31.0801V41.2176H26.5801V44.5926H24.3301Z" fill="#FF267E"/>
</svg>
