<svg width="136" height="16" viewBox="0 0 136 16" fill="none" xmlns="http://www.w3.org/2000/svg">
<path d="M7.60055 0.116577L0.400146 8.9504V14.1405L11.8302 0.116577H7.60055Z" fill="#FF267E"/>
<path d="M7.43888 15.2477H3.2092L15.5412 0.116638H19.7709L7.43888 15.2477Z" fill="#FF267E"/>
<path d="M15.3796 15.2477H11.1499L23.4819 0.116638H27.7116L15.3796 15.2477Z" fill="#FF267E"/>
<path d="M23.3201 15.2477H19.0905L31.4225 0.116638H35.6522L23.3201 15.2477Z" fill="#FF267E"/>
<path d="M31.2607 15.2477H27.031L39.363 0.116638H43.5927L31.2607 15.2477Z" fill="#FF267E"/>
<path d="M39.2012 15.2477H34.9715L47.3048 0.116638H51.5345L39.2012 15.2477Z" fill="#FF267E"/>
<path d="M47.1432 15.2477H42.9135L55.2455 0.116638H59.4752L47.1432 15.2477Z" fill="#FF267E"/>
<path d="M55.0838 15.2477H50.8541L63.1861 0.116638H67.4158L55.0838 15.2477Z" fill="#FF267E"/>
<path d="M63.0243 15.2477H58.7946L71.1266 0.116638H75.3563L63.0243 15.2477Z" fill="#FF267E"/>
<path d="M70.965 15.2477H66.7353L79.0673 0.116638H83.297L70.965 15.2477Z" fill="#FF267E"/>
<path d="M78.9055 15.2477H74.6758L87.0091 0.116638H91.2388L78.9055 15.2477Z" fill="#FF267E"/>
<path d="M86.8474 15.2477H82.6177L94.9497 0.116638H99.1794L86.8474 15.2477Z" fill="#FF267E"/>
<path d="M94.7881 15.2477H90.5584L102.89 0.116638H107.12L94.7881 15.2477Z" fill="#FF267E"/>
<path d="M102.729 15.2477H98.4991L110.831 0.116638H115.061L102.729 15.2477Z" fill="#FF267E"/>
<path d="M110.669 15.2477H106.44L118.772 0.116638H123.001L110.669 15.2477Z" fill="#FF267E"/>
<path d="M118.61 15.2477H114.38L126.713 0.116638H130.943L118.61 15.2477Z" fill="#FF267E"/>
<path d="M134.654 0.116638L122.322 15.2477H126.552L135.486 4.28536V0.116638H134.654Z" fill="#FF267E"/>
<path d="M130.263 15.2477H134.492L135.486 14.0286V8.8385L130.263 15.2477Z" fill="#FF267E"/>
</svg>
