<svg width="1009" height="16" viewBox="0 0 1009 16" fill="none" xmlns="http://www.w3.org/2000/svg">
<path d="M866 0H0V2H866V0Z" fill="#FF267E"/>
<path d="M880.601 0.116577L873.4 8.9504V14.1405L884.83 0.116577H880.601Z" fill="#FF267E"/>
<path d="M880.439 15.2477H876.209L888.541 0.116638H892.771L880.439 15.2477Z" fill="#FF267E"/>
<path d="M888.38 15.2477H884.15L896.482 0.116638H900.712L888.38 15.2477Z" fill="#FF267E"/>
<path d="M896.32 15.2477H892.09L904.422 0.116638H908.652L896.32 15.2477Z" fill="#FF267E"/>
<path d="M904.261 15.2477H900.031L912.363 0.116638H916.593L904.261 15.2477Z" fill="#FF267E"/>
<path d="M912.201 15.2477H907.972L920.305 0.116638H924.534L912.201 15.2477Z" fill="#FF267E"/>
<path d="M920.143 15.2477H915.914L928.246 0.116638H932.475L920.143 15.2477Z" fill="#FF267E"/>
<path d="M928.084 15.2477H923.854L936.186 0.116638H940.416L928.084 15.2477Z" fill="#FF267E"/>
<path d="M936.024 15.2477H931.795L944.127 0.116638H948.356L936.024 15.2477Z" fill="#FF267E"/>
<path d="M943.965 15.2477H939.735L952.067 0.116638H956.297L943.965 15.2477Z" fill="#FF267E"/>
<path d="M951.906 15.2477H947.676L960.009 0.116638H964.239L951.906 15.2477Z" fill="#FF267E"/>
<path d="M959.847 15.2477H955.618L967.95 0.116638H972.179L959.847 15.2477Z" fill="#FF267E"/>
<path d="M967.788 15.2477H963.558L975.89 0.116638H980.12L967.788 15.2477Z" fill="#FF267E"/>
<path d="M975.729 15.2477H971.499L983.831 0.116638H988.061L975.729 15.2477Z" fill="#FF267E"/>
<path d="M983.669 15.2477H979.44L991.772 0.116638H996.001L983.669 15.2477Z" fill="#FF267E"/>
<path d="M991.61 15.2477H987.38L999.713 0.116638H1003.94L991.61 15.2477Z" fill="#FF267E"/>
<path d="M1007.65 0.116638L995.322 15.2477H999.552L1008.49 4.28536V0.116638H1007.65Z" fill="#FF267E"/>
<path d="M1003.26 15.2477H1007.49L1008.49 14.0286V8.8385L1003.26 15.2477Z" fill="#FF267E"/>
</svg>
