<svg width="65" height="57" viewBox="0 0 65 57" fill="none" xmlns="http://www.w3.org/2000/svg">
<path d="M57.4251 7.09651H50.3246V0H43.2281H36.1316H29.0311H21.9346H14.8381V7.09651H7.74157V14.197H0.641113V21.2935V28.39V35.4865V42.587H7.74157V49.6835H14.8381V56.78H21.9346H29.0311H36.1316H43.2281H50.3246V49.6835H57.4251V42.587H64.5216V35.4865V28.39V21.2935V14.197H57.4251V7.09651Z" fill="white"/>
<rect x="8" y="28" width="7" height="15" fill="#F1F1F1"/>
<rect x="51" y="14" width="7" height="15" fill="#F1F1F1"/>
<rect x="15" y="43" width="7" height="7" fill="#F1F1F1"/>
<rect x="44" y="7" width="7" height="7" fill="#F1F1F1"/>
<path d="M37.6411 26.5V24H35.1411V21.5H32.6411V14H35.1411V11.5H37.6411V9H45.1411V11.5H47.6411V14H50.1411V21.5H47.6411V24H45.1411V26.5H37.6411ZM40.1411 24H45.1411V14H42.6411V11.5H37.6411V21.5H40.1411V24Z" fill="#FF267E"/>
<path d="M15.1411 26.5V24H20.1411V14H17.6411V11.5H20.1411V9H25.1411V24H30.1411V26.5H15.1411Z" fill="#FF267E"/>
<path d="M37.5908 49.5926V41.7176H44.3408V42.8426H45.4658V45.0926H44.3408V46.2176H45.4658V48.4676H44.3408V49.5926H37.5908ZM39.8408 45.0926H43.2158V42.8426H39.8408V45.0926ZM39.8408 48.4676H43.2158V46.2176H39.8408V48.4676Z" fill="#FF267E"/>
<path d="M28.5908 49.5926V41.7176H36.4658V42.8426H30.8408V45.0926H35.3408V46.2176H30.8408V49.5926H28.5908Z" fill="#FF267E"/>
<path d="M19.5908 49.5926V41.7176H26.3408V42.8426H27.4658V46.2176H25.2158V47.3426H26.3408V48.4676H27.4658V49.5926H24.0908V48.4676H22.9658V47.3426H21.8408V49.5926H19.5908ZM21.8408 46.2176H24.0908V45.0926H25.2158V42.8426H21.8408V46.2176Z" fill="#FF267E"/>
<path d="M37.5908 38.5926V30.7176H44.3408V31.8426H45.4658V35.2176H43.2158V36.3426H44.3408V37.4676H45.4658V38.5926H42.0908V37.4676H40.9658V36.3426H39.8408V38.5926H37.5908ZM39.8408 35.2176H42.0908V34.0926H43.2158V31.8426H39.8408V35.2176Z" fill="#FF267E"/>
<path d="M29.7158 38.5926V37.4676H28.5908V30.7176H30.8408V37.4676H34.2158V30.7176H36.4658V37.4676H35.3408V38.5926H29.7158Z" fill="#FF267E"/>
<path d="M19.5908 38.5926V30.7176H27.4658V31.8426H21.8408V34.0926H26.3408V35.2176H21.8408V37.4676H27.4658V38.5926H19.5908Z" fill="#FF267E"/>
</svg>
