<svg width="65" height="57" viewBox="0 0 65 57" fill="none" xmlns="http://www.w3.org/2000/svg">
<path d="M57.5447 7.09651H50.4442V0H43.3477H36.2512H29.1507H22.0542H14.9577V7.09651H7.8612V14.197H0.760742V21.2935V28.39V35.4865V42.587H7.8612V49.6835H14.9577V56.78H22.0542H29.1507H36.2512H43.3477H50.4442V49.6835H57.5447V42.587H64.6412V35.4865V28.39V21.2935V14.197H57.5447V7.09651Z" fill="white"/>
<rect x="8" y="28" width="7" height="15" fill="#F1F1F1"/>
<rect x="51" y="14" width="7" height="15" fill="#F1F1F1"/>
<rect x="15" y="43" width="7" height="7" fill="#F1F1F1"/>
<rect x="44" y="7" width="7" height="7" fill="#F1F1F1"/>
<path d="M35.2607 32.5V30H32.7607V27.5H37.7607V30H45.2607V22.5H32.7607V15H47.7607V17.5H37.7607V20H47.7607V22.5H50.2607V30H47.7607V32.5H35.2607Z" fill="#FF267E"/>
<path d="M15.2607 32.5V30H20.2607V20H17.7607V17.5H20.2607V15H25.2607V30H30.2607V32.5H15.2607Z" fill="#FF267E"/>
<path d="M34.3354 44.5926V43.4676H33.2104V42.3426H35.4604V43.4676H38.8354V41.2176H34.3354V40.0926H33.2104V37.8426H34.3354V36.7176H39.9604V37.8426H41.0854V38.9676H38.8354V37.8426H35.4604V40.0926H39.9604V41.2176H41.0854V43.4676H39.9604V44.5926H34.3354Z" fill="#FF267E"/>
<path d="M24.2104 44.5926V36.7176H32.0855V37.8426H26.4604V40.0926H30.9605V41.2176H26.4604V44.5926H24.2104Z" fill="#FF267E"/>
</svg>
