<svg width="65" height="57" viewBox="0 0 65 57" fill="none" xmlns="http://www.w3.org/2000/svg">
<path d="M57.1858 7.09651H50.0853V0H42.9888H35.8923H28.7919H21.6953H14.5988V7.09651H7.50232V14.197H0.401855V21.2935V28.39V35.4865V42.587H7.50232V49.6835H14.5988V56.78H21.6953H28.7919H35.8923H42.9888H50.0853V49.6835H57.1858V42.587H64.2823V35.4865V28.39V21.2935V14.197H57.1858V7.09651Z" fill="white"/>
<rect x="7" y="28" width="7" height="15" fill="#F1F1F1"/>
<rect x="50" y="14" width="7" height="15" fill="#F1F1F1"/>
<rect x="14" y="43" width="7" height="7" fill="#F1F1F1"/>
<rect x="43" y="7" width="7" height="7" fill="#F1F1F1"/>
<path d="M24.9019 32.5V30H22.4019V20H24.9019V17.5H27.4019V15H37.4019V17.5H29.9019V20H27.4019V22.5H37.4019V25H39.9019V30H37.4019V32.5H24.9019ZM27.4019 30H34.9019V25H27.4019V30Z" fill="#FF267E"/>
<path d="M33.9766 44.5926V43.4676H32.8516V42.3426H35.1016V43.4676H38.4766V41.2176H33.9766V40.0926H32.8516V37.8426H33.9766V36.7176H39.6016V37.8426H40.7266V38.9676H38.4766V37.8426H35.1016V40.0926H39.6016V41.2176H40.7266V43.4676H39.6016V44.5926H33.9766Z" fill="#FF267E"/>
<path d="M23.8516 44.5926V36.7176H31.7266V37.8426H26.1016V40.0926H30.6016V41.2176H26.1016V44.5926H23.8516Z" fill="#FF267E"/>
</svg>
